<?xml version="1.0" standalone="no"?>
<!DOCTYPE svg PUBLIC "-//W3C//DTD SVG 20010904//EN"
 "http://www.w3.org/TR/2001/REC-SVG-20010904/DTD/svg10.dtd">
<svg version="1.0" xmlns="http://www.w3.org/2000/svg"
 width="512.000000pt" height="512.000000pt" viewBox="0 0 512.000000 512.000000"
 preserveAspectRatio="xMidYMid meet">

<g transform="translate(0.000000,512.000000) scale(0.100000,-0.100000)"
fill="#000000" stroke="none">
<path d="M2406 5110 c-68 -11 -862 -217 -887 -231 -56 -30 -28 -139 36 -139
14 0 191 43 392 96 347 91 369 95 417 86 129 -27 2069 -542 2083 -554 18 -15
47 -78 39 -85 -8 -8 -1210 -323 -1223 -320 -7 1 -118 98 -248 216 l-235 213 0
103 c0 122 -15 174 -67 227 -95 98 -267 84 -345 -27 -36 -51 -52 -144 -46
-278 4 -97 5 -100 36 -128 59 -53 200 -73 313 -44 23 6 46 -12 206 -157 99
-89 181 -167 183 -173 2 -5 -70 -29 -161 -53 -140 -37 -183 -44 -295 -49 -78
-3 -157 -1 -195 6 -67 11 -2073 536 -2089 546 -18 11 -11 35 12 45 13 5 214
59 448 120 234 61 435 118 447 126 31 19 38 55 19 92 -16 30 -34 42 -66 42
-41 0 -924 -239 -949 -257 -36 -27 -71 -99 -71 -148 1 -53 30 -117 67 -143 35
-25 84 -39 633 -182 234 -61 432 -114 441 -118 14 -6 2 -54 -90 -364 l-106
-358 -115 0 c-144 0 -233 -19 -335 -69 -183 -90 -306 -274 -321 -478 -11 -147
46 -315 142 -422 l46 -51 -134 0 c-150 -1 -207 -10 -260 -45 -92 -60 -122
-200 -65 -298 31 -52 84 -93 135 -103 40 -8 47 -29 47 -144 0 -115 -7 -136
-47 -144 -51 -10 -104 -51 -134 -102 -37 -63 -39 -158 -6 -222 25 -47 87 -97
133 -107 16 -4 29 -9 29 -12 0 -2 -20 -28 -45 -56 -25 -29 -62 -83 -81 -122
-113 -229 -70 -490 111 -670 81 -81 161 -127 271 -155 76 -20 119 -20 2247
-20 1597 0 2180 3 2208 11 50 15 105 62 129 109 64 126 8 269 -126 319 -35 14
-50 26 -54 42 -4 16 -8 20 -13 12 -4 -7 -14 -10 -21 -7 -15 6 -30 -22 -20 -37
3 -5 0 -8 -8 -7 -7 2 -13 -5 -13 -14 0 -10 -7 -23 -15 -30 -12 -11 -12 -10 -5
2 6 9 0 4 -12 -10 -13 -14 -27 -25 -32 -25 -5 0 -13 -3 -17 -7 -3 -4 2 -6 14
-3 16 3 19 -1 14 -18 -3 -12 -10 -25 -16 -29 -6 -4 26 -8 72 -8 76 0 85 -2
109 -26 20 -20 24 -31 19 -57 -12 -64 -25 -67 -252 -67 -124 0 -205 -4 -209
-10 -3 -6 -12 -10 -18 -10 -7 0 -6 4 3 10 13 8 13 10 1 10 -8 0 7 14 35 31
108 69 218 212 245 319 53 209 50 320 -16 538 -4 12 -11 22 -16 22 -5 0 -9 5
-9 11 0 24 -113 177 -166 224 -31 28 -60 50 -64 50 -5 0 -19 9 -32 20 -13 11
-27 22 -33 24 -32 12 -55 25 -55 33 0 4 -13 8 -29 8 -17 0 -33 5 -36 10 -3 6
-17 10 -31 10 -13 0 -24 3 -24 8 0 4 -63 7 -140 7 -108 0 -143 3 -149 14 -7
10 -10 10 -13 1 -2 -7 -24 -13 -55 -13 -28 -1 -49 -5 -47 -9 3 -4 0 -8 -7 -8
-7 0 -19 -7 -28 -16 -9 -9 -51 -34 -93 -57 -141 -76 -237 -173 -310 -314 -22
-43 -45 -81 -50 -84 -6 -4 -11 -34 -13 -67 -3 -67 -10 -86 -31 -78 -8 3 -14 1
-14 -4 0 -6 5 -10 10 -10 6 0 10 -9 10 -20 0 -11 -4 -20 -10 -20 -6 0 -9 -28
-9 -67 1 -56 3 -62 9 -33 7 33 8 31 10 -20 4 -85 5 -91 34 -149 14 -30 26 -56
26 -58 0 -2 -161 -2 -357 -1 -310 3 -358 5 -358 18 0 8 10 16 23 18 16 3 22
10 22 30 0 20 -3 23 -12 14 -17 -17 -83 -15 -98 3 -11 13 -5 15 49 15 61 0 61
0 61 29 0 38 -24 56 -75 56 -56 0 -85 -25 -85 -75 0 -39 18 -62 58 -74 12 -4
22 -14 22 -22 0 -12 -140 -14 -1007 -14 -940 0 -1010 1 -1042 18 -50 25 -74
63 -74 116 0 52 21 89 66 116 27 17 51 20 163 20 l131 0 5 -71 c6 -80 27 -112
75 -112 16 0 103 39 203 91 l174 92 961 0 c657 1 954 4 943 11 -10 5 -18 18
-17 27 0 14 2 14 10 -3 7 -16 8 -14 4 10 -4 17 -14 47 -23 67 l-17 37 -902 1
-903 0 0 75 0 75 899 0 c495 0 906 3 915 6 9 3 16 15 16 26 0 12 -4 17 -12 12
-8 -5 -9 -2 -5 10 4 10 7 22 7 27 0 6 5 7 10 4 6 -3 10 0 10 7 0 7 3 23 6 36
l6 22 -926 0 -926 0 0 75 0 75 941 0 940 0 -5 70 c-3 39 -8 75 -11 80 -4 6
-348 10 -936 10 l-929 0 0 130 0 130 1010 0 1010 0 0 24 c0 70 44 99 103 71
24 -11 53 -14 116 -10 60 3 90 1 110 -9 15 -8 33 -11 40 -7 7 4 24 6 39 4 21
-4 24 -2 12 6 -20 14 -45 12 264 27 99 4 144 10 135 16 -11 7 -9 8 4 4 11 -3
30 -9 43 -12 13 -3 21 -11 17 -17 -4 -6 2 -8 15 -5 12 3 23 1 26 -6 3 -7 5 -6
5 3 1 12 4 12 19 -1 21 -19 77 -34 67 -18 -4 6 10 4 31 -5 44 -18 53 -25 33
-25 -20 0 36 -28 81 -40 21 -6 49 -23 62 -38 13 -15 32 -27 43 -28 38 -2 82
-12 103 -23 29 -15 32 -14 32 12 -1 64 -74 162 -148 199 l-47 23 -2178 5
-2179 5 -24 28 c-30 35 -30 59 0 94 l24 28 2119 3 c1429 2 2144 -1 2198 -8
200 -26 348 -164 386 -361 6 -35 16 -69 21 -76 5 -6 8 -31 7 -55 -2 -29 4 -53
17 -73 10 -16 26 -51 35 -79 l16 -50 22 59 c43 116 51 203 26 318 -34 163
-137 310 -271 388 l-52 30 21 55 c18 49 19 63 10 109 -22 101 -87 167 -186
190 -60 13 -65 23 -65 140 0 117 5 129 59 136 84 12 132 49 168 129 23 51 27
114 9 173 -17 55 -82 122 -133 136 -25 7 -151 11 -330 11 l-290 0 -106 358
c-92 309 -104 358 -90 364 9 4 243 66 521 139 356 92 516 138 543 156 45 29
76 89 77 148 0 49 -35 121 -71 148 -17 12 -338 101 -840 233 -1372 361 -1304
345 -1454 349 -71 2 -157 0 -189 -5z m200 -501 c16 -18 19 -37 19 -117 l0 -95
-28 -10 c-16 -5 -48 -6 -73 -2 l-44 6 0 100 c0 86 3 102 20 119 27 27 81 26
106 -1z m673 -1355 c39 -50 78 -213 95 -401 l6 -63 -140 0 c-127 0 -140 2
-140 18 0 39 22 201 36 272 8 41 28 103 44 138 24 52 33 62 54 62 15 0 33 -11
45 -26z m-313 -259 l-10 -75 -1043 0 c-1025 0 -1043 0 -1097 -20 -66 -25 -130
-85 -159 -148 -33 -71 -30 -180 5 -248 31 -59 84 -108 147 -138 l46 -21 1869
-3 c1714 -2 1871 -4 1888 -19 24 -22 23 -78 -2 -103 -20 -20 -33 -20 -1882
-20 -1219 0 -1878 4 -1907 11 -169 39 -306 188 -330 359 -32 235 132 455 365
489 32 5 523 9 1089 10 l1030 1 -9 -75z m1624 62 c51 -26 57 -102 10 -127 -12
-6 -222 -10 -548 -10 l-530 0 -6 58 c-4 31 -9 65 -12 75 -5 16 25 17 528 17
407 0 539 -3 558 -13z m-1638 -337 c8 -83 -3 -80 282 -80 138 0 256 4 263 8
16 10 33 57 33 93 l0 29 428 0 427 0 0 -135 0 -135 -1762 2 -1762 3 -30 29
c-36 34 -53 85 -44 128 7 36 63 95 95 101 13 2 483 5 1044 6 l1021 1 5 -50z
m-2102 -1110 l0 -130 -227 0 -228 0 0 130 0 130 228 0 227 0 0 -130z m360
-317 l0 -448 -100 -52 -100 -52 0 499 0 500 100 0 100 0 0 -447z m2965 22
c334 -85 529 -434 424 -757 -63 -193 -223 -342 -424 -393 -191 -49 -410 12
-553 153 -117 116 -175 256 -176 422 0 139 46 269 136 382 37 47 139 124 203
154 116 54 271 69 390 39z m-3325 -70 l0 -75 -294 0 c-179 0 -305 4 -323 10
-28 10 -53 45 -53 74 0 7 9 25 21 40 l20 26 315 0 314 0 0 -75z m0 -299 l0
-74 -157 -4 c-139 -3 -163 -6 -199 -25 -132 -70 -186 -200 -144 -348 10 -37
28 -64 69 -106 97 -96 -34 -89 1599 -89 1099 0 1422 3 1422 12 0 9 3 9 12 0 7
-7 18 -12 24 -12 7 0 50 -27 96 -60 46 -33 89 -60 96 -60 6 0 12 -4 12 -10 0
-5 8 -10 18 -11 12 0 13 -2 3 -6 -11 -5 -11 -7 0 -14 10 -6 8 -9 -8 -9 -13 0
-23 5 -23 10 0 7 -522 10 -1545 10 -1106 0 -1559 3 -1597 11 -224 48 -380 276
-339 496 30 162 138 288 296 342 50 17 86 20 213 21 l152 0 0 -74z m1795 -356
c4 -6 -8 -10 -29 -10 -20 0 -36 5 -36 10 0 6 13 10 29 10 17 0 33 -4 36 -10z
m771 -247 c-7 -7 -26 7 -26 19 0 6 6 6 15 -2 9 -7 13 -15 11 -17z m960 -248
c-10 -8 -24 -11 -29 -8 -6 4 -2 10 9 14 31 12 40 9 20 -6z m-56 -15 c-8 -5
-24 -9 -35 -9 -16 1 -16 2 5 9 35 11 48 11 30 0z m-345 -20 c14 -7 8 -8 -20
-3 -22 3 -42 7 -44 9 -9 8 45 2 64 -6z m268 3 c-7 -2 -19 -2 -25 0 -7 3 -2 5
12 5 14 0 19 -2 13 -5z"/>
<path d="M1605 2746 c-52 -22 -71 -97 -40 -156 29 -57 155 -66 163 -12 3 22
-12 30 -23 12 -3 -5 -21 -10 -40 -10 -39 0 -65 28 -65 70 0 60 58 90 108 54
21 -14 22 -14 22 11 0 42 -64 58 -125 31z"/>
<path d="M1790 2680 c0 -17 7 -20 42 -20 l42 0 -42 -43 c-63 -64 -58 -77 28
-77 63 0 70 2 70 20 0 17 -7 20 -42 20 l-42 0 42 43 c63 64 58 77 -28 77 -63
0 -70 -2 -70 -20z"/>
<path d="M2018 2693 c-10 -2 -18 -12 -18 -21 0 -14 8 -17 41 -14 55 6 75 -14
23 -23 -54 -9 -69 -18 -72 -48 -4 -36 36 -56 79 -40 16 6 29 7 29 2 0 -5 9 -9
20 -9 18 0 20 7 20 69 0 68 0 69 -31 80 -32 11 -60 12 -91 4z m80 -95 c-5 -15
-33 -22 -54 -14 -24 9 -6 26 27 26 20 0 29 -4 27 -12z"/>
<path d="M2240 2687 c-15 -8 -26 -23 -28 -39 -3 -24 2 -28 40 -39 66 -19 71
-32 11 -27 -46 4 -53 3 -53 -13 0 -33 103 -37 130 -4 6 8 10 24 8 37 -2 18
-12 25 -45 32 -57 12 -55 29 2 24 37 -2 45 0 45 13 0 28 -67 38 -110 16z"/>
<path d="M4101 1290 c-19 -11 -9 -45 14 -45 13 0 21 8 23 21 3 23 -17 37 -37
24z"/>
<path d="M3825 1241 c-7 -12 12 -24 25 -16 11 7 4 25 -10 25 -5 0 -11 -4 -15
-9z"/>
<path d="M4076 1161 c-4 -6 -19 -90 -33 -188 -15 -98 -33 -184 -40 -191 -7 -7
-16 -19 -20 -25 -5 -7 -62 -35 -128 -62 -80 -34 -121 -56 -123 -68 -7 -34 30
-29 143 17 63 25 117 46 120 46 3 0 5 -17 3 -37 -3 -35 -1 -38 22 -38 21 0 26
5 28 31 2 18 12 40 23 50 10 9 19 22 19 28 0 7 14 17 30 23 20 7 30 18 30 32
0 27 -14 33 -44 20 -14 -7 -28 -10 -30 -8 -3 3 6 76 20 164 14 88 23 171 22
185 -3 25 -31 39 -42 21z m-54 -423 c-7 -7 -12 -8 -12 -2 0 14 12 26 19 19 2
-3 -1 -11 -7 -17z"/>
<path d="M4352 1158 c6 -18 28 -21 28 -4 0 9 -7 16 -16 16 -9 0 -14 -5 -12
-12z"/>
<path d="M3607 1083 c-12 -11 -8 -23 8 -23 8 0 15 7 15 15 0 16 -12 20 -23 8z"/>
<path d="M4520 935 c0 -9 5 -15 11 -13 6 2 11 8 11 13 0 5 -5 11 -11 13 -6 2
-11 -4 -11 -13z"/>
<path d="M3492 841 c-20 -12 -10 -46 14 -49 25 -4 40 24 23 44 -13 16 -19 17
-37 5z"/>
<path d="M3980 821 c0 -6 4 -13 10 -16 6 -3 7 1 4 9 -7 18 -14 21 -14 7z"/>
<path d="M4070 687 c0 -9 91 -147 98 -147 4 0 -7 19 -65 105 -18 27 -33 46
-33 42z"/>
<path d="M4542 677 c-9 -10 -8 -18 2 -32 18 -25 48 -13 44 17 -4 27 -30 35
-46 15z"/>
<path d="M3525 551 c-7 -12 12 -24 25 -16 11 7 4 25 -10 25 -5 0 -11 -4 -15
-9z"/>
<path d="M4185 506 c10 -14 19 -26 22 -26 7 0 -17 39 -28 46 -6 3 -3 -5 6 -20z"/>
<path d="M4225 446 c10 -14 19 -26 22 -26 7 0 -17 39 -28 46 -6 3 -3 -5 6 -20z"/>
<path d="M4440 404 c0 -9 5 -14 12 -12 18 6 21 28 4 28 -9 0 -16 -7 -16 -16z"/>
<path d="M4256 397 c3 -10 9 -15 12 -12 3 3 0 11 -7 18 -10 9 -11 8 -5 -6z"/>
<path d="M3690 326 c0 -9 7 -16 16 -16 9 0 14 5 12 12 -6 18 -28 21 -28 4z"/>
<path d="M4220 245 c0 -9 5 -15 11 -13 6 2 11 8 11 13 0 5 -5 11 -11 13 -6 2
-11 -4 -11 -13z"/>
<path d="M3937 233 c-13 -12 -7 -41 10 -47 23 -9 47 22 32 41 -12 14 -32 17
-42 6z"/>
<path d="M2080 1620 l0 -110 25 0 c25 0 25 2 25 77 l0 78 47 -78 c37 -60 52
-77 70 -77 23 0 23 2 23 110 0 103 -1 110 -20 110 -18 0 -20 -7 -20 -60 0 -33
-3 -60 -7 -60 -5 0 -24 27 -43 60 -31 53 -38 60 -67 60 l-33 0 0 -110z"/>
<path d="M4034 1716 c-52 -58 -21 -116 62 -116 21 0 24 -4 24 -40 0 -22 -4
-40 -10 -40 -5 0 -10 -4 -10 -8 0 -9 79 -36 85 -30 2 2 7 23 12 48 l9 45 50
-3 c45 -3 53 -1 67 22 23 34 21 55 -5 77 -26 23 -38 24 -38 4 0 -18 -15 -18
-125 -2 -71 11 -80 15 -83 35 -4 24 -21 28 -38 8z m118 -198 c-7 -7 -12 -8
-12 -2 0 14 12 26 19 19 2 -3 -1 -11 -7 -17z"/>
<path d="M4173 1703 c9 -2 23 -2 30 0 6 3 -1 5 -18 5 -16 0 -22 -2 -12 -5z"/>
<path d="M2368 1663 c-10 -2 -18 -12 -18 -21 0 -14 8 -17 41 -14 55 6 75 -14
23 -23 -54 -9 -69 -18 -72 -48 -4 -36 36 -56 79 -40 16 6 29 7 29 2 0 -5 9 -9
20 -9 18 0 20 7 20 69 0 68 0 69 -31 80 -32 11 -60 12 -91 4z m80 -95 c-5 -15
-33 -22 -54 -14 -24 9 -6 26 27 26 20 0 29 -4 27 -12z"/>
<path d="M4980 1104 c-8 -20 -8 -29 1 -35 8 -5 10 -22 4 -56 -4 -26 -6 -61 -4
-78 2 -16 3 -63 2 -102 -1 -40 1 -73 6 -73 12 0 57 52 75 86 45 91 20 212 -56
273 -16 12 -19 10 -28 -15z"/>
<path d="M2320 595 c0 -108 1 -115 20 -115 14 0 20 7 20 23 0 13 5 28 12 35 9
9 17 3 35 -23 16 -24 31 -35 48 -35 31 0 31 5 0 46 -31 41 -31 45 1 83 l26 31
-29 0 c-20 0 -35 -10 -53 -34 -14 -19 -28 -32 -32 -29 -5 2 -8 33 -8 69 0 57
-2 64 -20 64 -19 0 -20 -7 -20 -115z"/>
<path d="M1600 590 l0 -110 25 0 c25 0 25 2 25 77 l0 78 47 -78 c37 -60 52
-77 70 -77 23 0 23 2 23 110 0 103 -1 110 -20 110 -18 0 -20 -7 -20 -60 0 -33
-3 -60 -7 -60 -5 0 -24 27 -43 60 -31 53 -38 60 -67 60 l-33 0 0 -110z"/>
<path d="M1888 633 c-10 -2 -18 -12 -18 -21 0 -14 8 -17 41 -14 55 6 75 -14
23 -23 -54 -9 -69 -18 -72 -48 -4 -36 36 -56 79 -40 16 6 29 7 29 2 0 -5 9 -9
20 -9 18 0 20 7 20 69 0 68 0 69 -31 80 -32 11 -60 12 -91 4z m80 -95 c-5 -15
-33 -22 -54 -14 -24 9 -6 26 27 26 20 0 29 -4 27 -12z"/>
<path d="M2090 570 c0 -65 2 -71 25 -82 19 -8 32 -8 52 1 19 9 29 9 31 2 2 -6
15 -11 28 -11 23 0 24 2 24 80 0 78 -1 80 -25 80 -22 0 -24 -4 -27 -57 -3 -52
-5 -58 -27 -61 -31 -5 -41 12 -41 71 0 40 -3 47 -20 47 -18 0 -20 -7 -20 -70z"/>
</g>
</svg>
