<?xml version="1.0" standalone="no"?>
<!DOCTYPE svg PUBLIC "-//W3C//DTD SVG 20010904//EN"
 "http://www.w3.org/TR/2001/REC-SVG-20010904/DTD/svg10.dtd">
<svg version="1.0" xmlns="http://www.w3.org/2000/svg"
 width="322.000000pt" height="306.000000pt" viewBox="0 0 322.000000 306.000000"
 preserveAspectRatio="xMidYMid meet">

<g transform="translate(0.000000,306.000000) scale(0.100000,-0.100000)"
fill="#000000" stroke="none">
<path d="M0 1530 l0 -1530 1610 0 1610 0 0 1530 0 1530 -1610 0 -1610 0 0
-1530z m2127 1428 c-3 -8 -6 -5 -6 6 -1 11 2 17 5 13 3 -3 4 -12 1 -19z
m-1608 -2 c8 -9 11 -55 9 -136 -3 -104 -6 -125 -20 -134 -13 -8 -23 -8 -35 0
-15 9 -18 29 -21 125 -3 139 1 159 32 159 13 0 29 -6 35 -14z m290 0 c8 -9 11
-55 9 -136 -3 -104 -6 -125 -20 -134 -13 -8 -23 -8 -35 0 -15 9 -18 29 -21
125 -3 139 1 159 32 159 13 0 29 -6 35 -14z m290 0 c8 -9 11 -55 9 -136 -3
-104 -6 -125 -20 -134 -13 -8 -23 -8 -35 0 -15 9 -18 29 -21 125 -3 139 1 159
32 159 13 0 29 -6 35 -14z m290 0 c8 -9 11 -55 9 -136 -3 -104 -6 -125 -20
-134 -13 -8 -23 -8 -35 0 -15 9 -18 29 -21 125 -3 139 1 159 32 159 13 0 29
-6 35 -14z m290 0 c8 -9 11 -55 9 -136 -3 -104 -6 -125 -20 -134 -13 -8 -23
-8 -35 0 -15 9 -18 29 -21 125 -3 139 1 159 32 159 13 0 29 -6 35 -14z m290 0
c8 -9 11 -55 9 -136 -3 -104 -6 -125 -20 -134 -13 -8 -23 -8 -35 0 -15 9 -18
29 -21 125 -3 139 1 159 32 159 13 0 29 -6 35 -14z m290 0 c8 -9 11 -55 9
-136 -3 -104 -6 -125 -20 -134 -13 -8 -23 -8 -35 0 -15 9 -18 29 -21 125 -3
139 1 159 32 159 13 0 29 -6 35 -14z m290 0 c8 -9 11 -55 9 -136 -3 -104 -6
-125 -20 -134 -13 -8 -23 -8 -35 0 -15 9 -18 29 -21 125 -3 139 1 159 32 159
13 0 29 -6 35 -14z m-1299 -160 c0 -81 4 -107 19 -132 26 -43 71 -60 120 -45
59 17 72 46 76 165 1 55 3 104 4 109 0 4 17 7 36 7 l35 0 0 -100 c0 -71 5
-110 15 -130 20 -39 68 -63 110 -56 39 8 84 50 86 80 1 11 3 55 4 98 3 97 7
108 45 108 l30 0 0 -102 c0 -83 4 -109 19 -134 26 -43 71 -60 120 -45 60 17
74 48 76 166 1 55 3 103 4 108 0 4 17 7 36 7 l35 0 0 -102 c0 -83 4 -109 19
-134 26 -43 71 -60 120 -45 59 17 73 47 76 165 2 56 3 104 4 109 0 4 17 7 36
7 l35 0 0 -102 c0 -83 4 -109 19 -134 26 -43 71 -60 120 -45 62 18 75 47 75
176 l1 111 58 -8 c67 -9 109 -35 125 -75 12 -28 72 -828 65 -849 -5 -13 -94
-57 -588 -296 -181 -88 -391 -189 -465 -226 -74 -36 -188 -91 -253 -122 l-118
-57 -243 -241 c-133 -133 -239 -242 -235 -242 4 0 157 18 341 40 l333 40 125
59 c272 128 656 308 860 402 118 55 231 108 250 117 l35 18 3 -66 c1 -36 6
-126 11 -200 6 -74 9 -148 7 -165 -1 -16 1 -32 4 -35 4 -3 10 -46 13 -97 6
-75 4 -91 -7 -87 -20 8 -48 -40 -33 -56 9 -10 9 -11 0 -6 -17 9 -17 -26 2
-284 19 -268 19 -340 -1 -368 l-15 -22 -1391 0 c-1281 0 -1393 1 -1410 17 -15
14 -18 32 -18 127 0 61 7 205 14 321 25 355 29 430 23 424 -4 -3 -8 -27 -9
-55 -2 -27 -6 -53 -9 -59 -3 -5 -5 -25 -4 -42 1 -18 -1 -30 -4 -27 -3 3 -6 11
-6 17 -1 7 -5 11 -10 10 -18 -3 -8 290 24 737 17 239 45 622 61 850 33 456 31
447 101 482 19 10 53 18 77 18 l42 0 0 -97 c0 -123 16 -161 75 -182 36 -12 45
-12 76 3 50 24 60 49 64 162 1 54 3 102 4 107 0 4 17 7 36 7 l35 0 0 -97 c0
-123 16 -161 75 -182 36 -12 45 -12 75 3 52 24 61 46 65 157 2 54 7 103 10
109 3 5 19 10 36 10 l29 0 0 -100 c0 -71 5 -110 15 -130 20 -39 68 -63 110
-56 36 7 84 49 86 75 1 9 2 61 2 116 l1 100 38 -3 38 -4 0 -102z m1819 -881
c16 -8 31 -21 35 -30 6 -18 7 -26 3 -22 -2 1 -12 -5 -21 -13 -21 -17 -44 -21
-51 -10 -3 5 3 7 14 5 14 -3 18 1 14 12 -5 12 -7 12 -14 1 -5 -7 -9 -9 -9 -4
0 5 -6 3 -13 -3 -8 -6 -16 -8 -19 -6 -3 3 -4 -6 -3 -20 2 -14 -1 -23 -6 -19
-5 3 -7 9 -4 14 3 5 1 11 -4 14 -5 4 -12 2 -16 -4 -4 -6 -10 -8 -15 -5 -4 3
-6 -3 -3 -13 2 -11 -3 -24 -14 -32 -10 -8 -15 -10 -11 -6 10 11 -11 38 -23 30
-5 -3 -9 -11 -9 -17 0 -7 4 -6 10 3 7 12 9 10 7 -7 -1 -19 -4 -20 -17 -10 -16
14 -40 17 -40 5 1 -4 10 -27 20 -50 23 -51 26 -125 6 -173 -14 -32 -62 -65
-141 -95 -23 -9 -24 -8 -14 17 5 14 8 27 7 28 -2 1 -250 -113 -551 -254 -506
-236 -549 -258 -554 -283 -3 -16 -8 -28 -12 -28 -4 0 -61 -7 -126 -15 -161
-21 -180 -22 -180 -10 -2 23 -17 55 -27 55 -6 0 -26 -10 -46 -22 -19 -12 -33
-17 -31 -12 2 6 67 72 145 147 l141 136 464 224 c255 124 583 283 729 355 281
139 317 150 379 117z m-83 -105 c0 -12 -4 -16 -9 -11 -5 5 -6 14 -3 20 10 15
12 14 12 -9z m-96 -36 c0 -8 -19 -13 -24 -6 -3 5 1 9 9 9 8 0 15 -2 15 -3z
m-2833 -841 c-3 -10 -5 -4 -5 12 0 17 2 24 5 18 2 -7 2 -21 0 -30z m2907 -169
c3 -9 6 -34 5 -57 -1 -35 -2 -38 -8 -17 -15 50 -20 90 -12 90 5 0 12 -7 15
-16z m13 -191 c-3 -10 -5 -4 -5 12 0 17 2 24 5 18 2 -7 2 -21 0 -30z m-2950
-75 c-3 -7 -5 -2 -5 12 0 14 2 19 5 13 2 -7 2 -19 0 -25z m2960 -50 c-2 -13
-4 -5 -4 17 -1 22 1 32 4 23 2 -10 2 -28 0 -40z"/>
<path d="M2458 2543 c7 -3 16 -2 19 1 4 3 -2 6 -13 5 -11 0 -14 -3 -6 -6z"/>
<path d="M2548 2543 c6 -2 18 -2 25 0 6 3 1 5 -13 5 -14 0 -19 -2 -12 -5z"/>
<path d="M2603 2543 c9 -2 25 -2 35 0 9 3 1 5 -18 5 -19 0 -27 -2 -17 -5z"/>
<path d="M2668 2543 c7 -3 16 -2 19 1 4 3 -2 6 -13 5 -11 0 -14 -3 -6 -6z"/>
<path d="M2010 2430 c0 -15 7 -20 25 -20 18 0 25 5 25 20 0 15 -7 20 -25 20
-18 0 -25 -5 -25 -20z"/>
<path d="M2130 2335 l0 -115 25 0 c21 0 25 5 25 29 0 44 15 46 40 6 15 -24 29
-35 46 -35 30 0 30 2 -1 48 -14 20 -25 40 -25 44 0 3 12 20 26 37 l26 31 -25
0 c-17 0 -36 -12 -56 -37 l-31 -38 0 73 c0 70 -1 72 -25 72 l-25 0 0 -115z"/>
<path d="M740 2330 l0 -110 25 0 c23 0 24 3 27 78 l3 77 45 -77 c39 -67 49
-78 73 -78 l27 0 0 110 0 110 -25 0 c-23 0 -24 -4 -27 -62 l-3 -63 -40 62
c-36 56 -44 63 -72 63 l-33 0 0 -110z"/>
<path d="M1240 2405 c0 -14 -4 -25 -10 -25 -5 0 -10 -9 -10 -20 0 -11 5 -20
10 -20 6 0 10 -18 10 -40 0 -50 29 -83 68 -78 35 4 42 35 10 40 -19 2 -24 10
-26 41 -3 34 -1 37 22 37 19 0 26 5 26 20 0 15 -7 20 -25 20 -20 0 -25 5 -25
25 0 20 -5 25 -25 25 -20 0 -25 -5 -25 -25z"/>
<path d="M1620 2405 c0 -14 -4 -25 -10 -25 -5 0 -10 -9 -10 -20 0 -11 5 -20
10 -20 6 0 10 -18 10 -40 0 -50 29 -83 68 -78 35 4 42 35 10 40 -19 2 -24 10
-26 41 -3 34 -1 37 22 37 19 0 26 5 26 20 0 15 -7 20 -25 20 -20 0 -25 5 -25
25 0 20 -5 25 -25 25 -20 0 -25 -5 -25 -25z"/>
<path d="M1043 2370 c-44 -18 -57 -81 -25 -120 25 -31 100 -34 131 -6 27 25
29 86 2 110 -23 21 -78 29 -108 16z m72 -70 c0 -32 -2 -35 -30 -35 -24 0 -31
5 -33 23 -6 38 5 54 35 50 25 -3 28 -7 28 -38z"/>
<path d="M1423 2373 c-13 -2 -23 -12 -23 -21 0 -14 7 -17 41 -14 50 5 77 -14
33 -23 -68 -14 -79 -20 -82 -48 -3 -22 2 -29 25 -38 19 -8 37 -8 56 -1 15 6
27 6 27 1 0 -5 11 -9 25 -9 24 0 25 3 25 58 0 32 -6 66 -12 75 -14 17 -77 28
-115 20z m77 -98 c0 -10 -10 -15 -30 -15 -20 0 -30 5 -30 15 0 10 10 15 30 15
20 0 30 -5 30 -15z"/>
<path d="M1780 2300 c0 -79 0 -80 25 -80 24 0 25 3 25 60 l0 60 30 0 30 0 0
-60 c0 -57 1 -60 25 -60 24 0 25 2 25 65 0 58 -3 66 -25 81 -22 14 -30 15 -53
5 -18 -9 -28 -9 -30 -2 -2 6 -15 11 -28 11 -23 0 -24 -2 -24 -80z"/>
<path d="M2010 2300 c0 -79 0 -80 25 -80 25 0 25 1 25 80 0 79 0 80 -25 80
-25 0 -25 -1 -25 -80z"/>
<path d="M115 1021 c-3 -5 -2 -12 3 -15 5 -3 9 1 9 9 0 17 -3 19 -12 6z"/>
<path d="M87 973 c-2 -5 -3 -27 -2 -50 2 -24 -1 -41 -4 -38 -11 6 -7 -52 3
-62 5 -5 7 -1 3 9 -3 9 -3 19 1 23 6 6 11 125 5 125 -1 0 -4 -3 -6 -7z"/>
<path d="M3073 1864 c0 -9 4 -11 12 -4 7 5 14 9 16 7 2 -1 3 0 1 2 -7 11 -29
7 -29 -5z"/>
<path d="M2936 1807 c3 -10 9 -15 12 -12 3 3 0 11 -7 18 -10 9 -11 8 -5 -6z"/>
</g>
</svg>
